<svg width="852" height="457" viewBox="0 0 852 457" fill="none" xmlns="http://www.w3.org/2000/svg">
<path d="M4.88039 0C5.67357 2.53244 6.49474 5.00481 7.31591 7.52724C5.23499 10.2599 4.11521 15.3548 4.31118 21.1203C4.53513 27.8568 6.27078 32.7615 8.3237 32.5914C10.8152 32.3912 11.9163 24.5837 13.0921 17.687C14.2678 10.7904 15.8915 2.94282 20.1373 2.9228C24.5698 2.9228 27.6025 11.1407 28.0131 21.2705C28.3024 29.2782 26.8187 35.3741 24.0099 37.9665C23.1514 35.8545 22.2929 33.7224 21.4531 31.5704C23.1794 29.6585 24.0099 25.7047 23.8606 21.5607C23.674 16.3257 22.0596 12.1417 20.128 12.1917C18.0191 12.2418 17.3286 17.687 16.2368 24.8239C14.7344 34.1028 13.1947 41.3298 8.94891 41.7802C4.18054 42.2907 0.419956 33.5423 0.0187032 21.2204C-0.298567 11.2508 1.76369 3.48335 4.88039 0Z" fill="url(#paint0_linear_4002_1183)"/>
<path d="M29.0488 47.2255C29.2821 50.0882 29.534 52.9409 29.814 55.7636L2.97669 59.5473C2.67808 56.5244 2.40436 53.4815 2.15552 50.4185L29.0488 47.2255Z" fill="url(#paint1_linear_4002_1183)"/>
<path d="M40.004 116.322L13.2507 124.33C12.6286 121.567 12.0314 118.784 11.4591 115.982L26.0442 111.908C20.1529 107.51 14.3145 102.839 8.52899 97.8942V97.8242C12.2616 90.6306 16.1217 83.5671 20.1093 76.6338L5.28165 79.4365C4.88972 76.487 4.51646 73.5208 4.16187 70.5379L31.5031 65.9635C31.5031 66.1737 31.5031 66.3839 31.5777 66.5941C26.097 76.1833 20.8683 86.0295 15.8915 96.1325C23.7797 103.206 31.7737 109.729 39.8734 115.701C39.9107 115.932 39.9574 116.132 40.004 116.322Z" fill="url(#paint2_linear_4002_1183)"/>
<path d="M41.6371 125.941C42.9746 131.373 44.393 136.735 45.8923 142.027C48.4771 151.176 47.1333 160.044 42.5143 162.046C37.8952 164.048 31.8017 157.972 29.077 148.343C28.2371 145.41 27.4346 142.457 26.6508 139.484L17.7019 142.587C16.9927 139.905 16.3022 137.192 15.6396 134.469L41.6371 125.941ZM40.1907 154.559C42.6356 153.558 43.3354 148.663 41.8797 143.548C41.0772 140.705 40.2965 137.849 39.5375 134.98L30.682 138.063C31.4596 141.019 32.2528 143.945 33.0615 146.841C34.5452 152.096 37.8019 155.51 40.1907 154.559Z" fill="url(#paint3_linear_4002_1183)"/>
<path d="M42.2249 201.854L38.3803 203.856C34.4922 194.587 30.8747 185.061 27.5278 175.279L52.8068 164.168C53.6279 166.55 54.4616 168.916 55.3076 171.265L34.1252 181.054C36.6758 188.134 39.3757 195.068 42.2249 201.854Z" fill="url(#paint4_linear_4002_1183)"/>
<path d="M65.2922 196.329C66.272 198.561 67.2612 200.783 68.269 202.975L44.0072 216.719C42.9341 214.376 41.8703 212.004 40.8345 209.622L65.2922 196.329Z" fill="url(#paint5_linear_4002_1183)"/>
<path d="M71.5443 219.702L65.1895 223.635C67.8708 228.92 70.6391 234.109 73.4945 239.2L69.8646 241.663C66.9781 236.518 64.1786 231.276 61.4663 225.938L51.3976 232.184C50.2499 229.901 49.1114 227.619 48.001 225.307L72.0668 210.963C76.0358 219.171 80.2319 227.142 84.655 234.876L81.0437 237.369C77.759 231.603 74.5925 225.714 71.5443 219.702Z" fill="url(#paint6_linear_4002_1183)"/>
<path d="M80.3065 258.909C81.8928 251.369 83.6472 243.928 85.5694 236.588C86.8852 238.88 88.2289 241.142 89.5913 243.394C88.3471 248.539 87.1931 253.724 86.1293 258.949C91.0066 259.657 95.8714 260.247 100.724 260.721C102.179 262.863 103.654 264.982 105.147 267.077C98.2042 266.597 91.2119 265.883 84.1697 264.935L74.6236 272.302C73.2799 270.26 71.9548 268.202 70.6484 266.126L80.3065 258.909Z" fill="url(#paint7_linear_4002_1183)"/>
<path d="M112.883 303.432C113.592 295.898 114.482 288.434 115.552 281.041C117.119 283.042 118.706 285.024 120.311 286.986C119.689 292.151 119.138 297.35 118.659 302.581C123.58 302.521 128.469 302.354 133.328 302.081C135.017 303.943 136.715 305.774 138.442 307.586C131.493 308.16 124.479 308.524 117.399 308.677L108.796 317.275C107.234 315.494 105.679 313.699 104.13 311.89L112.883 303.432Z" fill="url(#paint8_linear_4002_1183)"/>
<path d="M127.244 316.485C132.889 310.619 144.134 313.031 152.756 321.199C161.378 329.367 164.756 340.878 159.829 347.424C154.902 353.971 142.921 352.549 133.589 343.681C124.258 334.812 121.664 322.27 127.244 316.485ZM154.65 342.93C158.15 338.456 155.854 330.368 149.807 324.623C143.76 318.877 135.894 317.326 132.077 321.469C128.261 325.613 130.211 334.162 136.557 340.218C142.902 346.273 151.188 347.364 154.65 342.93Z" fill="url(#paint9_linear_4002_1183)"/>
<path d="M162.237 353.891L172.884 339.607C174.573 340.998 176.271 342.36 177.988 343.721C174.511 348.526 171.036 353.337 167.565 358.155C165.223 361.358 166.874 366.383 171.176 369.616C175.478 372.849 180.582 372.909 182.757 369.616L192.573 354.701C194.346 355.973 196.129 357.214 197.92 358.455C194.723 363.48 191.525 368.485 188.327 373.47C184.819 379.055 176.197 379.045 168.601 373.349C161.005 367.654 158.271 359.136 162.237 353.891Z" fill="url(#paint10_linear_4002_1183)"/>
<path d="M209.631 399.865C208.008 394.627 206.487 389.388 205.068 384.15C203.575 383.229 202.089 382.298 200.608 381.357L194.934 390.946C192.993 389.712 191.065 388.464 189.149 387.203L204.154 362.639C207.719 364.981 211.314 367.267 214.941 369.496C221.473 373.5 224.963 380.176 222.584 384.73C220.857 388.024 216.266 389.165 211.516 387.603C213.215 393.082 215.038 398.55 216.985 404.009C214.521 402.654 212.07 401.273 209.631 399.865ZM208.176 381.647C211.582 383.759 215.529 383.519 216.761 381.257C217.992 378.995 216.136 375.482 212.851 373.47C210.985 372.328 209.118 371.177 207.252 370.006L202.465 378.114C204.369 379.309 206.272 380.486 208.176 381.647Z" fill="url(#paint11_linear_4002_1183)"/>
<path d="M235.396 407.913C237.355 407.913 239.312 407.913 241.265 407.913C242.058 410.795 244.783 413.508 248.572 415.21C252.995 417.212 256.97 417.212 257.791 415.14C258.78 412.657 254.245 408.974 250.326 405.591C246.407 402.207 242.207 398.153 244.12 394.049C246.127 389.755 252.705 389.335 259.377 392.318C264.678 394.69 267.953 398.183 268.354 401.787C266.591 401.897 264.827 402.007 263.054 402.087C262.597 399.775 260.413 397.653 257.688 396.432C254.245 394.89 250.848 395.11 250.009 396.982C249.075 398.984 252.248 401.426 256.335 404.87C261.626 409.394 265.667 413.388 264.015 417.642C262.149 422.427 254.768 423.027 246.668 419.384C240.155 416.441 236.179 412.017 235.396 407.913Z" fill="url(#paint12_linear_4002_1183)"/>
<path d="M269.773 412.978C272.768 405.28 283.919 402.517 294.818 406.171C305.717 409.824 313.071 418.833 310.99 426.841C308.909 434.849 297.394 438.592 285.59 434.618C273.785 430.645 266.852 420.585 269.773 412.978ZM304.579 424.989C306.128 419.474 301.024 413.128 293.381 410.545C285.739 407.963 277.984 410.005 276.006 415.38C274.028 420.755 278.918 427.562 286.999 430.274C295.08 432.987 303.058 430.444 304.579 424.959V424.989Z" fill="url(#paint13_linear_4002_1183)"/>
<path d="M314.881 427.892C317.008 420.014 327.945 415.88 339.012 418.293C343.882 419.346 348.395 421.791 352.076 425.37C350.648 426.37 349.211 427.271 347.756 428.212C345.025 425.451 341.627 423.564 337.948 422.767C330.716 421.226 322.747 423.948 321.338 429.574C319.929 435.199 326.163 441.475 333.73 443.087C337.59 443.91 341.59 443.503 345.236 441.915C346.281 443.357 347.339 444.795 348.409 446.23C343.511 448.345 338.133 448.83 332.975 447.621C320.9 445.039 312.753 435.78 314.881 427.892Z" fill="url(#paint14_linear_4002_1183)"/>
<path d="M357.74 422.377C359.831 422.724 361.927 423.057 364.03 423.378C362.63 432.934 361.227 442.489 359.821 452.045C357.582 451.705 355.342 451.351 353.103 450.984C354.652 441.442 356.197 431.906 357.74 422.377Z" fill="url(#paint15_linear_4002_1183)"/>
<path d="M395.523 451.535C388.749 451.041 382.005 450.414 375.293 449.653C374.167 450.988 373.022 452.322 371.859 453.657C369.423 453.356 366.988 453.046 364.562 452.656C372.611 443.827 380.251 434.795 387.48 425.56H387.853C393.29 435.956 399.181 446.243 405.527 456.419C403.072 456.309 400.618 456.169 398.173 456.019C397.278 454.588 396.391 453.066 395.523 451.535ZM393.209 447.451C390.994 443.5 388.851 439.533 386.78 435.549C384.018 439.079 381.193 442.586 378.307 446.069C383.265 446.623 388.232 447.084 393.209 447.451Z" fill="url(#paint16_linear_4002_1183)"/>
<path d="M436.349 452.345C436.349 453.857 436.423 455.348 436.451 456.88C427.742 457.08 419.033 457.027 410.323 456.72L411.34 427.772C413.456 427.852 415.577 427.912 417.704 427.952C417.549 436.1 417.387 444.248 417.219 452.396C423.596 452.516 429.972 452.499 436.349 452.345Z" fill="url(#paint17_linear_4002_1183)"/>
<path d="M495.333 421.616L500.139 450.794C497.899 451.174 495.66 451.525 493.42 451.875C492.636 446.537 491.849 441.238 491.059 435.98C487.252 441.812 483.27 447.594 479.115 453.327H479.059C473.696 448.729 468.486 444.037 463.429 439.253C463.877 444.591 464.328 449.93 464.782 455.268C462.523 455.462 460.265 455.639 458.007 455.799C457.317 445.963 456.629 436.12 455.945 426.27H456.421C463.363 432.803 470.608 439.163 478.154 445.349C484.064 437.568 489.638 429.677 494.876 421.676L495.333 421.616Z" fill="url(#paint18_linear_4002_1183)"/>
<path d="M510.245 424.028C510.72 426.451 511.178 428.883 511.682 431.305C516.839 430.258 521.977 429.11 527.097 427.862C527.442 429.323 527.788 430.795 528.142 432.266C522.973 433.527 517.781 434.688 512.568 435.75C513.078 438.372 513.598 440.991 514.126 443.607C520.273 442.359 526.394 440.971 532.491 439.443L533.555 443.847C525.193 445.929 516.795 447.768 508.36 449.363L503.153 420.865C511.072 419.37 518.948 417.649 526.78 415.7L527.834 420.044C521.987 421.506 516.123 422.834 510.245 424.028Z" fill="url(#paint19_linear_4002_1183)"/>
<path d="M568.911 418.113C571.832 426.471 565.561 434.739 552.292 438.712C548.342 439.893 544.379 441.015 540.404 442.076C537.984 432.733 535.57 423.391 533.163 414.049C536.895 413.054 540.606 412.007 544.295 410.906C556.603 407.192 565.953 409.634 568.911 418.113ZM562.594 420.285C560.662 414.439 554.13 412.657 545.517 415.28L540.478 416.751L545.741 435.96C547.533 435.453 549.318 434.932 551.098 434.398C560.112 431.656 564.526 426.06 562.594 420.285Z" fill="url(#paint20_linear_4002_1183)"/>
<path d="M569.723 402.387C571.72 401.637 573.717 400.886 575.695 400.105L585.82 427.191C583.699 428.025 581.574 428.836 579.447 429.624C576.212 420.542 572.971 411.463 569.723 402.387Z" fill="url(#paint21_linear_4002_1183)"/>
<path d="M616.716 408.754C610.607 411.763 604.427 414.619 598.175 417.322C597.829 419.063 597.484 420.805 597.12 422.557C594.843 423.518 592.563 424.459 590.28 425.38C593.073 413.648 595.394 401.94 597.242 390.256L597.587 390.096C607.341 396.415 617.425 402.387 627.839 408.013C625.65 409.167 623.447 410.298 621.233 411.406L616.716 408.754ZM612.732 406.371C608.906 404.042 605.13 401.667 601.403 399.244C600.694 403.722 599.917 408.203 599.071 412.687C603.662 410.692 608.215 408.6 612.732 406.411V406.371Z" fill="url(#paint22_linear_4002_1183)"/>
<path d="M665.585 349.697L682.167 373.92C680.301 375.301 678.435 376.663 676.569 378.014C673.626 373.583 670.69 369.152 667.76 364.721C666.783 371.768 665.626 378.835 664.288 385.922C657.514 384.22 650.842 382.355 644.272 380.326C646.929 384.951 649.582 389.575 652.232 394.2C650.282 395.401 648.313 396.592 646.344 397.753L632.076 371.988L632.496 371.738C641.504 374.507 650.708 376.96 660.108 379.095C662.173 369.352 663.881 359.64 665.231 349.957L665.585 349.697Z" fill="url(#paint23_linear_4002_1183)"/>
<path d="M707.68 347.374C702.491 352.046 697.203 356.56 691.816 360.917C691.9 362.719 691.975 364.521 692.031 366.323C690.071 367.884 688.083 369.426 686.096 370.957C686.003 358.732 685.461 346.644 684.472 334.692L684.771 334.442C695.707 337.919 706.88 340.945 718.289 343.521C716.423 345.272 714.557 346.994 712.691 348.706C711.03 348.275 709.35 347.825 707.68 347.374ZM703.266 346.153C699.011 344.952 694.793 343.671 690.612 342.34C690.992 346.917 691.303 351.515 691.545 356.133C695.508 352.89 699.415 349.563 703.266 346.153Z" fill="url(#paint24_linear_4002_1183)"/>
<path d="M726.408 293.573L747.142 313.852L746.918 314.112C736.044 317.082 725.229 319.468 714.473 321.269L726.893 335.123C725.223 336.794 723.552 338.456 721.863 340.127L702.771 318.166L703.014 317.926C713.589 316.471 724.258 314.469 735.021 311.92L721.957 298.728C723.462 297.006 724.946 295.288 726.408 293.573Z" fill="url(#paint25_linear_4002_1183)"/>
<path d="M766.757 280.81C762.558 286.776 758.225 292.585 753.758 298.237C754.178 300.029 754.589 301.811 754.99 303.602C753.357 305.604 751.715 307.606 750.054 309.608C747.665 297.416 744.866 285.431 741.656 273.653L741.898 273.333C753.239 274.187 764.729 274.521 776.369 274.334C774.894 276.546 773.41 278.748 771.899 280.93C770.182 280.9 768.465 280.86 766.757 280.81ZM762.213 280.66C757.827 280.48 753.472 280.223 749.149 279.889C750.393 284.394 751.562 288.931 752.657 293.503C755.905 289.312 759.09 285.021 762.213 280.63V280.66Z" fill="url(#paint26_linear_4002_1183)"/>
<path d="M788.667 227.489C795.731 231.833 795.414 244.035 789.097 254.815C782.023 266.907 770.77 271.832 764.545 266.827C758.321 261.822 758.844 249.29 765.208 238.389C768.134 233.461 772.105 229.345 776.798 226.378C777.19 228.21 777.582 230.051 777.955 231.903C774.244 234.061 771.097 237.183 768.801 240.982C764.667 248.069 763.911 257.128 768.53 260.701C772.897 264.074 780.502 260.701 785.616 251.983C789.74 244.976 790.179 237.859 786.596 235.547L786.521 235.497C784.213 239.767 781.846 243.978 779.42 248.129L776.117 245.807C779.793 239.534 783.327 233.101 786.717 226.508C787.391 226.778 788.043 227.106 788.667 227.489Z" fill="url(#paint27_linear_4002_1183)"/>
<path d="M785.877 209.362L792.055 212.955C794.599 207.55 797.047 202.048 799.399 196.449L803.243 198.451C800.873 204.11 798.385 209.669 795.778 215.127L802.45 219.001C805.486 212.561 808.388 205.985 811.156 199.272L815.01 201.274C811.222 210.469 807.178 219.421 802.879 228.13L778.991 213.666C783.034 205.525 786.82 197.15 790.347 188.542L794.154 190.543C791.542 196.93 788.783 203.202 785.877 209.362Z" fill="url(#paint28_linear_4002_1183)"/>
<path d="M807.47 136.151L833.888 145.58C833.16 148.253 832.423 150.915 831.657 153.588L817.408 148.153C820.457 155.293 823.371 162.543 826.152 169.904V169.964C819.813 173.467 813.452 176.707 807.069 179.683L820.964 186.239C820.037 188.735 819.104 191.214 818.164 193.676L792.773 181.124L792.969 180.604C801.735 176.547 810.444 171.992 819.097 166.941C815.464 156.651 811.548 146.574 807.349 136.712C807.368 136.491 807.414 136.331 807.47 136.151Z" fill="url(#paint29_linear_4002_1183)"/>
<path d="M816.307 120.626L822.998 122.698C824.46 116.299 825.813 109.812 827.057 103.239L831.181 104.3C829.937 110.974 828.572 117.526 827.085 123.959L834.317 126.192C836.071 118.578 837.66 110.827 839.085 102.939L843.219 103.94C841.259 114.75 839.001 125.314 836.444 135.631L810.428 127.032C812.83 117.37 814.945 107.477 816.774 97.3537L820.861 98.3547C819.498 105.922 817.98 113.346 816.307 120.626Z" fill="url(#paint30_linear_4002_1183)"/>
<path d="M823.315 46.1944L850.75 49.3875C850.75 49.5277 850.75 49.6778 850.75 49.8179C843.996 61.2126 836.676 72.2091 828.821 82.7597L846.177 86.3331C845.748 89.2559 845.3 92.1487 844.833 95.0415L817.772 88.8956C817.772 88.7655 817.772 88.6253 817.838 88.4852C825.778 78.5008 833.205 68.0585 840.084 57.205L822.587 54.7827C822.867 51.94 823.11 49.0772 823.315 46.1944Z" fill="url(#paint31_linear_4002_1183)"/>
<path d="M829.399 0C829.399 5.23838 829.334 10.43 829.203 15.575L852 16.4558C851.916 19.6489 851.813 22.832 851.683 25.985L828.905 24.5937C828.699 29.6919 828.426 34.7334 828.083 39.7182L823.894 39.3078C824.752 26.5155 825.188 13.4129 825.2 0H829.399Z" fill="url(#paint32_linear_4002_1183)"/>
<defs>
<linearGradient id="paint0_linear_4002_1183" x1="-12.5" y1="-2.78223e-05" x2="988.347" y2="-503.549" gradientUnits="userSpaceOnUse">
<stop stop-color="#BAEDBD"/>
<stop offset="1" stop-color="#9747FF"/>
</linearGradient>
<linearGradient id="paint1_linear_4002_1183" x1="-12.5" y1="-2.78223e-05" x2="988.347" y2="-503.549" gradientUnits="userSpaceOnUse">
<stop stop-color="#BAEDBD"/>
<stop offset="1" stop-color="#9747FF"/>
</linearGradient>
<linearGradient id="paint2_linear_4002_1183" x1="-12.5" y1="-2.78223e-05" x2="988.347" y2="-503.549" gradientUnits="userSpaceOnUse">
<stop stop-color="#BAEDBD"/>
<stop offset="1" stop-color="#9747FF"/>
</linearGradient>
<linearGradient id="paint3_linear_4002_1183" x1="-12.5" y1="-2.78223e-05" x2="988.347" y2="-503.549" gradientUnits="userSpaceOnUse">
<stop stop-color="#BAEDBD"/>
<stop offset="1" stop-color="#9747FF"/>
</linearGradient>
<linearGradient id="paint4_linear_4002_1183" x1="-12.5" y1="-2.78223e-05" x2="988.347" y2="-503.549" gradientUnits="userSpaceOnUse">
<stop stop-color="#BAEDBD"/>
<stop offset="1" stop-color="#9747FF"/>
</linearGradient>
<linearGradient id="paint5_linear_4002_1183" x1="-12.5" y1="-2.78223e-05" x2="988.347" y2="-503.549" gradientUnits="userSpaceOnUse">
<stop stop-color="#BAEDBD"/>
<stop offset="1" stop-color="#9747FF"/>
</linearGradient>
<linearGradient id="paint6_linear_4002_1183" x1="-12.5" y1="-2.78223e-05" x2="988.347" y2="-503.549" gradientUnits="userSpaceOnUse">
<stop stop-color="#BAEDBD"/>
<stop offset="1" stop-color="#9747FF"/>
</linearGradient>
<linearGradient id="paint7_linear_4002_1183" x1="-12.5" y1="-2.78223e-05" x2="988.347" y2="-503.549" gradientUnits="userSpaceOnUse">
<stop stop-color="#BAEDBD"/>
<stop offset="1" stop-color="#9747FF"/>
</linearGradient>
<linearGradient id="paint8_linear_4002_1183" x1="-12.5" y1="-2.78223e-05" x2="988.347" y2="-503.549" gradientUnits="userSpaceOnUse">
<stop stop-color="#BAEDBD"/>
<stop offset="1" stop-color="#9747FF"/>
</linearGradient>
<linearGradient id="paint9_linear_4002_1183" x1="-12.5" y1="-2.78223e-05" x2="988.347" y2="-503.549" gradientUnits="userSpaceOnUse">
<stop stop-color="#BAEDBD"/>
<stop offset="1" stop-color="#9747FF"/>
</linearGradient>
<linearGradient id="paint10_linear_4002_1183" x1="-12.5" y1="-2.78223e-05" x2="988.347" y2="-503.549" gradientUnits="userSpaceOnUse">
<stop stop-color="#BAEDBD"/>
<stop offset="1" stop-color="#9747FF"/>
</linearGradient>
<linearGradient id="paint11_linear_4002_1183" x1="-12.5" y1="-2.78223e-05" x2="988.347" y2="-503.549" gradientUnits="userSpaceOnUse">
<stop stop-color="#BAEDBD"/>
<stop offset="1" stop-color="#9747FF"/>
</linearGradient>
<linearGradient id="paint12_linear_4002_1183" x1="-12.5" y1="-2.78223e-05" x2="988.347" y2="-503.549" gradientUnits="userSpaceOnUse">
<stop stop-color="#BAEDBD"/>
<stop offset="1" stop-color="#9747FF"/>
</linearGradient>
<linearGradient id="paint13_linear_4002_1183" x1="-12.5" y1="-2.78223e-05" x2="988.347" y2="-503.549" gradientUnits="userSpaceOnUse">
<stop stop-color="#BAEDBD"/>
<stop offset="1" stop-color="#9747FF"/>
</linearGradient>
<linearGradient id="paint14_linear_4002_1183" x1="-12.5" y1="-2.78223e-05" x2="988.347" y2="-503.549" gradientUnits="userSpaceOnUse">
<stop stop-color="#BAEDBD"/>
<stop offset="1" stop-color="#9747FF"/>
</linearGradient>
<linearGradient id="paint15_linear_4002_1183" x1="-12.5" y1="-2.78223e-05" x2="988.347" y2="-503.549" gradientUnits="userSpaceOnUse">
<stop stop-color="#BAEDBD"/>
<stop offset="1" stop-color="#9747FF"/>
</linearGradient>
<linearGradient id="paint16_linear_4002_1183" x1="-12.5" y1="-2.78223e-05" x2="988.347" y2="-503.549" gradientUnits="userSpaceOnUse">
<stop stop-color="#BAEDBD"/>
<stop offset="1" stop-color="#9747FF"/>
</linearGradient>
<linearGradient id="paint17_linear_4002_1183" x1="-12.5" y1="-2.78223e-05" x2="988.347" y2="-503.549" gradientUnits="userSpaceOnUse">
<stop stop-color="#BAEDBD"/>
<stop offset="1" stop-color="#9747FF"/>
</linearGradient>
<linearGradient id="paint18_linear_4002_1183" x1="-12.5" y1="-2.78223e-05" x2="988.347" y2="-503.549" gradientUnits="userSpaceOnUse">
<stop stop-color="#BAEDBD"/>
<stop offset="1" stop-color="#9747FF"/>
</linearGradient>
<linearGradient id="paint19_linear_4002_1183" x1="-12.5" y1="-2.78223e-05" x2="988.347" y2="-503.549" gradientUnits="userSpaceOnUse">
<stop stop-color="#BAEDBD"/>
<stop offset="1" stop-color="#9747FF"/>
</linearGradient>
<linearGradient id="paint20_linear_4002_1183" x1="-12.5" y1="-2.78223e-05" x2="988.347" y2="-503.549" gradientUnits="userSpaceOnUse">
<stop stop-color="#BAEDBD"/>
<stop offset="1" stop-color="#9747FF"/>
</linearGradient>
<linearGradient id="paint21_linear_4002_1183" x1="-12.5" y1="-2.78223e-05" x2="988.347" y2="-503.549" gradientUnits="userSpaceOnUse">
<stop stop-color="#BAEDBD"/>
<stop offset="1" stop-color="#9747FF"/>
</linearGradient>
<linearGradient id="paint22_linear_4002_1183" x1="-12.5" y1="-2.78223e-05" x2="988.347" y2="-503.549" gradientUnits="userSpaceOnUse">
<stop stop-color="#BAEDBD"/>
<stop offset="1" stop-color="#9747FF"/>
</linearGradient>
<linearGradient id="paint23_linear_4002_1183" x1="-12.5" y1="-2.78223e-05" x2="988.347" y2="-503.549" gradientUnits="userSpaceOnUse">
<stop stop-color="#BAEDBD"/>
<stop offset="1" stop-color="#9747FF"/>
</linearGradient>
<linearGradient id="paint24_linear_4002_1183" x1="-12.5" y1="-2.78223e-05" x2="988.347" y2="-503.549" gradientUnits="userSpaceOnUse">
<stop stop-color="#BAEDBD"/>
<stop offset="1" stop-color="#9747FF"/>
</linearGradient>
<linearGradient id="paint25_linear_4002_1183" x1="-12.5" y1="-2.78223e-05" x2="988.347" y2="-503.549" gradientUnits="userSpaceOnUse">
<stop stop-color="#BAEDBD"/>
<stop offset="1" stop-color="#9747FF"/>
</linearGradient>
<linearGradient id="paint26_linear_4002_1183" x1="-12.5" y1="-2.78223e-05" x2="988.347" y2="-503.549" gradientUnits="userSpaceOnUse">
<stop stop-color="#BAEDBD"/>
<stop offset="1" stop-color="#9747FF"/>
</linearGradient>
<linearGradient id="paint27_linear_4002_1183" x1="-12.5" y1="-2.78223e-05" x2="988.347" y2="-503.549" gradientUnits="userSpaceOnUse">
<stop stop-color="#BAEDBD"/>
<stop offset="1" stop-color="#9747FF"/>
</linearGradient>
<linearGradient id="paint28_linear_4002_1183" x1="-12.5" y1="-2.78223e-05" x2="988.347" y2="-503.549" gradientUnits="userSpaceOnUse">
<stop stop-color="#BAEDBD"/>
<stop offset="1" stop-color="#9747FF"/>
</linearGradient>
<linearGradient id="paint29_linear_4002_1183" x1="-12.5" y1="-2.78223e-05" x2="988.347" y2="-503.549" gradientUnits="userSpaceOnUse">
<stop stop-color="#BAEDBD"/>
<stop offset="1" stop-color="#9747FF"/>
</linearGradient>
<linearGradient id="paint30_linear_4002_1183" x1="-12.5" y1="-2.78223e-05" x2="988.347" y2="-503.549" gradientUnits="userSpaceOnUse">
<stop stop-color="#BAEDBD"/>
<stop offset="1" stop-color="#9747FF"/>
</linearGradient>
<linearGradient id="paint31_linear_4002_1183" x1="-12.5" y1="-2.78223e-05" x2="988.347" y2="-503.549" gradientUnits="userSpaceOnUse">
<stop stop-color="#BAEDBD"/>
<stop offset="1" stop-color="#9747FF"/>
</linearGradient>
<linearGradient id="paint32_linear_4002_1183" x1="-12.5" y1="-2.78223e-05" x2="988.347" y2="-503.549" gradientUnits="userSpaceOnUse">
<stop stop-color="#BAEDBD"/>
<stop offset="1" stop-color="#9747FF"/>
</linearGradient>
</defs>
</svg>
